<svg width="642" height="110" viewBox="0 0 642 110" fill="none" xmlns="http://www.w3.org/2000/svg">
<path d="M45.8049 108.536H28.6098V39.4478C28.6098 31.202 28.8049 24.664 29.1951 19.8337C28.0732 21.0047 26.6829 22.2976 25.0244 23.7126C23.4146 25.1275 17.9512 29.6163 8.63415 37.179L0 26.2741L31.4634 1.53693H45.8049V108.536Z" fill="#161828"/>
<path d="M131.415 108.536H114.22V39.4478C114.22 31.202 114.415 24.664 114.805 19.8337C113.683 21.0047 112.293 22.2976 110.634 23.7126C109.024 25.1275 103.561 29.6163 94.2439 37.179L85.6098 26.2741L117.073 1.53693H131.415V108.536Z" fill="#161828"/>
<path d="M243.22 50.3526L268.537 1.53693H287.561L251.927 67.0393V108.536H234.366V67.6247L198.878 1.53693H217.902L243.22 50.3526Z" fill="#161828"/>
<path d="M362.195 108.536H301.683V1.53693H362.195V16.3207H319.171V45.4491H359.488V60.0865H319.171V93.6793H362.195V108.536Z" fill="#161828"/>
<path d="M451.756 108.536L441.073 78.8224H400.171L389.707 108.536H371.268L411.293 1.0978H430.317L470.341 108.536H451.756ZM436.463 63.7458L426.439 34.6174C425.707 32.6658 424.683 29.5919 423.366 25.3959C422.098 21.1998 421.22 18.126 420.732 16.1743C419.415 22.1756 417.488 28.7381 414.951 35.8616L405.293 63.7458H436.463Z" fill="#161828"/>
<path d="M501.951 51.3041H514.098C522.244 51.3041 528.146 49.7915 531.805 46.7665C535.463 43.7414 537.293 39.2526 537.293 33.3001C537.293 27.2499 535.317 22.9075 531.366 20.2728C527.415 17.6381 521.463 16.3207 513.512 16.3207H501.951V51.3041ZM501.951 65.7951V108.536H484.463V1.53693H514.683C528.488 1.53693 538.707 4.12287 545.341 9.29474C551.976 14.4666 555.293 22.2732 555.293 32.7146C555.293 46.0346 548.366 55.5245 534.512 61.1843L564.732 108.536H544.829L519.219 65.7951H501.951Z" fill="#161828"/>
<path d="M642 79.481C642 88.9953 638.561 96.4604 631.683 101.876C624.805 107.292 615.317 110 603.219 110C591.122 110 581.219 108.122 573.512 104.365V87.8243C578.39 90.1175 583.561 91.9228 589.024 93.2402C594.537 94.5575 599.659 95.2162 604.39 95.2162C611.317 95.2162 616.415 93.8989 619.683 91.2641C623 88.6294 624.659 85.092 624.659 80.652C624.659 76.6511 623.146 73.2601 620.122 70.479C617.098 67.6979 610.854 64.4045 601.39 60.5988C591.634 56.6467 584.756 52.1335 580.756 47.0592C576.756 41.9849 574.756 35.886 574.756 28.7625C574.756 19.8337 577.927 12.8077 584.268 7.68463C590.61 2.56154 599.122 0 609.805 0C620.049 0 630.244 2.2444 640.39 6.7332L634.829 21.0047C625.317 17.0038 616.829 15.0033 609.366 15.0033C603.707 15.0033 599.415 16.2475 596.488 18.7359C593.561 21.1754 592.098 24.42 592.098 28.4697C592.098 31.2508 592.683 33.6416 593.854 35.642C595.024 37.5937 596.951 39.4478 599.634 41.2043C602.317 42.9607 607.146 45.2783 614.122 48.157C621.976 51.426 627.732 54.4755 631.39 57.3054C635.049 60.1353 637.732 63.3311 639.439 66.8929C641.146 70.4546 642 74.6507 642 79.481Z" fill="#161828"/>
</svg>
