<svg width="455" height="128" viewBox="0 0 455 128" fill="none" xmlns="http://www.w3.org/2000/svg">
<path d="M36.2771 0.292739C46.4191 0.292739 54.4401 2.63465 60.34 7.31847C66.2399 11.9535 69.1898 18.1742 69.1898 25.9806C69.1898 36.9583 62.6073 45.6916 49.4422 52.1807C57.8289 56.3766 63.7775 60.7921 67.2882 65.4271C70.8477 70.0621 72.6274 75.2338 72.6274 80.9423C72.6274 89.7732 69.3849 96.8477 62.8999 102.166C56.4148 107.484 47.6381 110.143 36.5697 110.143C24.9649 110.143 15.9688 107.655 9.58126 102.678C3.19375 97.7015 0 90.6514 0 81.5277C0 75.5754 1.65783 70.2329 4.97348 65.5003C8.33789 60.7189 13.8233 56.4742 21.4298 52.7662C14.8961 48.863 10.2395 44.7402 7.46022 40.3979C4.68092 36.0556 3.29127 31.1767 3.29127 25.761C3.29127 18.0034 6.33875 11.8315 12.4337 7.24528C18.5286 2.61025 26.4764 0.292739 36.2771 0.292739ZM16.4564 80.9423C16.4564 86.0164 18.2361 89.9684 21.7955 92.7982C25.355 95.5792 30.1822 96.9697 36.2771 96.9697C42.5671 96.9697 47.4431 95.5304 50.905 92.6518C54.4157 89.7244 56.171 85.7724 56.171 80.7959C56.171 76.8439 54.562 73.2335 51.3438 69.9645C48.1257 66.6956 43.2497 63.6707 36.716 60.8896L34.5949 59.9382C28.1587 62.7681 23.5265 65.8906 20.6984 69.3059C17.8704 72.6724 16.4564 76.5512 16.4564 80.9423ZM36.1308 13.5392C31.2549 13.5392 27.3297 14.7589 24.3554 17.1984C21.3811 19.5891 19.8939 22.858 19.8939 27.0051C19.8939 29.5422 20.4303 31.8109 21.503 33.8113C22.5757 35.8117 24.136 37.6413 26.1839 39.3002C28.2318 40.9102 31.6937 42.8618 36.5697 45.1549C42.4208 42.5691 46.541 39.8613 48.9302 37.0314C51.3682 34.1528 52.5872 30.8107 52.5872 27.0051C52.5872 22.858 51.0757 19.5891 48.0526 17.1984C45.0782 14.7589 41.1043 13.5392 36.1308 13.5392Z" fill="#161828"/>
<path d="M158.2 55.1812C158.2 73.7701 155.202 87.5777 149.204 96.6038C143.256 105.63 134.138 110.143 121.85 110.143C109.953 110.143 100.932 105.484 94.7886 96.1647C88.6449 86.8458 85.5731 73.1847 85.5731 55.1812C85.5731 36.2996 88.5474 22.3945 94.4961 13.466C100.493 4.48866 109.612 0 121.85 0C133.796 0 142.841 4.68382 148.985 14.0515C155.129 23.4191 158.2 37.129 158.2 55.1812ZM102.98 55.1812C102.98 69.7694 104.467 80.186 107.442 86.4311C110.465 92.6762 115.268 95.7987 121.85 95.7987C128.433 95.7987 133.236 92.6274 136.259 86.2847C139.33 79.9421 140.866 69.5742 140.866 55.1812C140.866 40.837 139.33 30.4692 136.259 24.0778C133.236 17.6375 128.433 14.4174 121.85 14.4174C115.268 14.4174 110.465 17.5643 107.442 23.8582C104.467 30.1521 102.98 40.5931 102.98 55.1812Z" fill="#161828"/>
<path d="M194.843 92.9445C192.503 102.019 188.212 113.705 181.971 128H169.318C172.682 114.827 175.193 102.581 176.851 91.2613H193.746L194.843 92.9445Z" fill="#161828"/>
<path d="M283.854 55.1812C283.854 73.7701 280.855 87.5777 274.858 96.6038C268.909 105.63 259.791 110.143 247.504 110.143C235.606 110.143 226.586 105.484 220.442 96.1647C214.298 86.8458 211.226 73.1847 211.226 55.1812C211.226 36.2996 214.201 22.3945 220.149 13.466C226.147 4.48866 235.265 0 247.504 0C259.45 0 268.495 4.68382 274.638 14.0515C280.782 23.4191 283.854 37.129 283.854 55.1812ZM228.634 55.1812C228.634 69.7694 230.121 80.186 233.095 86.4311C236.118 92.6762 240.921 95.7987 247.504 95.7987C254.086 95.7987 258.889 92.6274 261.912 86.2847C264.984 79.9421 266.52 69.5742 266.52 55.1812C266.52 40.837 264.984 30.4692 261.912 24.0778C258.889 17.6375 254.086 14.4174 247.504 14.4174C240.921 14.4174 236.118 17.5643 233.095 23.8582C230.121 30.1521 228.634 40.5931 228.634 55.1812Z" fill="#161828"/>
<path d="M369.427 55.1812C369.427 73.7701 366.428 87.5777 360.431 96.6038C354.482 105.63 345.364 110.143 333.077 110.143C321.179 110.143 312.159 105.484 306.015 96.1647C299.871 86.8458 296.8 73.1847 296.8 55.1812C296.8 36.2996 299.774 22.3945 305.723 13.466C311.72 4.48866 320.838 0 333.077 0C345.023 0 354.068 4.68382 360.211 14.0515C366.355 23.4191 369.427 37.129 369.427 55.1812ZM314.207 55.1812C314.207 69.7694 315.694 80.186 318.668 86.4311C321.691 92.6762 326.494 95.7987 333.077 95.7987C339.659 95.7987 344.462 92.6274 347.485 86.2847C350.557 79.9421 352.093 69.5742 352.093 55.1812C352.093 40.837 350.557 30.4692 347.485 24.0778C344.462 17.6375 339.659 14.4174 333.077 14.4174C326.494 14.4174 321.691 17.5643 318.668 23.8582C315.694 30.1521 314.207 40.5931 314.207 55.1812Z" fill="#161828"/>
<path d="M455 55.1812C455 73.7701 452.001 87.5777 446.004 96.6038C440.055 105.63 430.937 110.143 418.65 110.143C406.752 110.143 397.732 105.484 391.588 96.1647C385.444 86.8458 382.373 73.1847 382.373 55.1812C382.373 36.2996 385.347 22.3945 391.296 13.466C397.293 4.48866 406.411 0 418.65 0C430.596 0 439.641 4.68382 445.784 14.0515C451.928 23.4191 455 37.129 455 55.1812ZM399.78 55.1812C399.78 69.7694 401.267 80.186 404.241 86.4311C407.264 92.6762 412.067 95.7987 418.65 95.7987C425.232 95.7987 430.035 92.6274 433.058 86.2847C436.13 79.9421 437.666 69.5742 437.666 55.1812C437.666 40.837 436.13 30.4692 433.058 24.0778C430.035 17.6375 425.232 14.4174 418.65 14.4174C412.067 14.4174 407.264 17.5643 404.241 23.8582C401.267 30.1521 399.78 40.5931 399.78 55.1812Z" fill="#161828"/>
</svg>
