<svg width="108" height="103" viewBox="0 0 108 103" fill="none" xmlns="http://www.w3.org/2000/svg">
<g filter="url(#filter0_d)">
<path d="M50.8562 24.0898C50.6191 24.1993 50.4059 24.3549 50.2287 24.5476C50.0516 24.7404 49.9139 24.9665 49.8238 25.2129C49.7336 25.4593 49.6927 25.7213 49.7033 25.9837C49.714 26.2461 49.776 26.5038 49.8858 26.742L60.8573 50.6723C60.9766 50.9312 61.1497 51.1614 61.365 51.3471C61.5802 51.5329 61.8326 51.67 62.1049 51.7491C62.2885 51.7796 62.4759 51.7796 62.6595 51.7491C63.0477 51.7461 63.4265 51.6282 63.7487 51.4101L74.7202 44.0516C75.1413 43.7632 75.4359 43.3227 75.5428 42.8213C75.6498 42.32 75.5608 41.7964 75.2945 41.3594C75.1491 41.1418 74.9624 40.9552 74.7453 40.8103C74.5281 40.6654 74.2847 40.5651 74.029 40.5151C73.7733 40.4651 73.5103 40.4664 73.2551 40.5188C72.9999 40.5713 72.7575 40.674 72.5417 40.821L63.4912 46.8035L53.51 25.0669C53.4013 24.8257 53.246 24.6087 53.0531 24.4286C52.8602 24.2485 52.6337 24.1089 52.3866 24.0179C52.1396 23.927 51.877 23.8865 51.6142 23.8988C51.3515 23.9111 51.0938 23.9761 50.8562 24.0898Z" fill="#6D94C4"/>
<path d="M90.0685 47.8405C89.5433 47.8405 89.0396 48.0506 88.6682 48.4245C88.2968 48.7985 88.0881 49.3057 88.0881 49.8346C88.0881 50.3635 88.2968 50.8708 88.6682 51.2447C89.0396 51.6187 89.5433 51.8288 90.0685 51.8288H97.3763C97.9015 51.8288 98.4052 51.6187 98.7766 51.2447C99.148 50.8708 99.3567 50.3635 99.3567 49.8346C99.3567 49.3057 99.148 48.7985 98.7766 48.4245C98.4052 48.0506 97.9015 47.8405 97.3763 47.8405H90.0685Z" fill="#6D94C4"/>
<path d="M29.7453 47.8405C29.2201 47.8405 28.7163 48.0506 28.3449 48.4245C27.9735 48.7985 27.7649 49.3057 27.7649 49.8346C27.7649 50.3635 27.9735 50.8708 28.3449 51.2447C28.7163 51.6187 29.2201 51.8288 29.7453 51.8288H37.053C37.5783 51.8288 38.082 51.6187 38.4534 51.2447C38.8248 50.8708 39.0334 50.3635 39.0334 49.8346C39.0334 49.3057 38.8248 48.7985 38.4534 48.4245C38.082 48.0506 37.5783 47.8405 37.053 47.8405H29.7453Z" fill="#6D94C4"/>
<path d="M64.6405 22.2153V14.8567C64.6405 14.3278 64.4319 13.8206 64.0605 13.4466C63.6891 13.0726 63.1853 12.8625 62.6601 12.8625C62.1349 12.8625 61.6311 13.0726 61.2597 13.4466C60.8883 13.8206 60.6797 14.3278 60.6797 14.8567V22.2153C60.6797 22.7441 60.8883 23.2514 61.2597 23.6254C61.6311 23.9993 62.1349 24.2094 62.6601 24.2094C63.1853 24.2094 63.6891 23.9993 64.0605 23.6254C64.4319 23.2514 64.6405 22.7441 64.6405 22.2153Z" fill="#6D94C4"/>
<path d="M62.0856 76.4969C63.9587 74.8675 65.1186 72.5604 65.3137 70.0756C65.2285 68.6291 64.5978 67.27 63.5505 66.2761C62.5032 65.2822 61.1185 64.7287 59.6794 64.7287C58.2404 64.7287 56.8556 65.2822 55.8084 66.2761C54.7611 67.27 54.1304 68.6291 54.0452 70.0756C54.0452 70.6045 54.2538 71.1118 54.6252 71.4857C54.9966 71.8597 55.5003 72.0698 56.0256 72.0698C56.5508 72.0698 57.0545 71.8597 57.4259 71.4857C57.7973 71.1118 58.006 70.6045 58.006 70.0756C58.0509 69.6603 58.2466 69.2764 58.5554 68.9974C58.8643 68.7184 59.2645 68.5642 59.6794 68.5642C60.0943 68.5642 60.4946 68.7184 60.8034 68.9974C61.1123 69.2764 61.3079 69.6603 61.3529 70.0756C61.3529 71.2921 60.5607 72.2493 59.1348 73.8247L58.1842 74.9215C56.8238 76.5509 55.5544 78.2553 54.3818 80.0266C54.1927 80.3209 54.084 80.6602 54.0666 81.0103C54.0492 81.3604 54.1238 81.709 54.2828 82.0208C54.4512 82.3392 54.7022 82.6057 55.0091 82.7918C55.316 82.978 55.6673 83.0768 56.0256 83.0777H63.3333C63.8585 83.0777 64.3623 82.8676 64.7337 82.4936C65.1051 82.1197 65.3137 81.6124 65.3137 81.0835C65.3137 80.5546 65.1051 80.0474 64.7337 79.6734C64.3623 79.2995 63.8585 79.0893 63.3333 79.0893H59.8874C60.3033 78.5509 60.739 77.9926 61.1746 77.4741L62.0856 76.4969Z" fill="#EEEEEE"/>
<path d="M75.2948 64.4121C74.7695 64.4121 74.2658 64.6222 73.8944 64.9962C73.523 65.3702 73.3144 65.8774 73.3144 66.4063V71.7707H71.7894V66.4063C71.7894 65.8774 71.5808 65.3702 71.2094 64.9962C70.838 64.6222 70.3343 64.4121 69.809 64.4121C69.2838 64.4121 68.7801 64.6222 68.4087 64.9962C68.0373 65.3702 67.8286 65.8774 67.8286 66.4063V73.7649C67.8286 74.2937 68.0373 74.801 68.4087 75.175C68.7801 75.5489 69.2838 75.759 69.809 75.759H73.3144V81.1234C73.3144 81.6523 73.523 82.1595 73.8944 82.5335C74.2658 82.9075 74.7695 83.1176 75.2948 83.1176C75.82 83.1176 76.3237 82.9075 76.6951 82.5335C77.0665 82.1595 77.2752 81.6523 77.2752 81.1234V66.4063C77.2752 65.8774 77.0665 65.3702 76.6951 64.9962C76.3237 64.6222 75.82 64.4121 75.2948 64.4121Z" fill="#EEEEEE"/>
<path d="M88.7221 60.7827C88.2127 60.6562 87.6742 60.7384 87.2249 61.0114C86.7756 61.2843 86.4522 61.7257 86.3258 62.2385L80.8401 84.334C80.7144 84.847 80.7961 85.3893 81.0672 85.8417C81.3382 86.2941 81.7765 86.6197 82.2858 86.747C82.7952 86.8735 83.3337 86.7913 83.783 86.5183C84.2323 86.2454 84.5557 85.804 84.6821 85.2912L90.1678 63.1957C90.2935 62.6827 90.2118 62.1404 89.9407 61.688C89.6697 61.2356 89.2314 60.91 88.7221 60.7827Z" fill="#EEEEEE"/>
<path d="M103.654 65.2696C103.473 65.0055 103.23 64.7895 102.947 64.6402C102.664 64.4909 102.35 64.4127 102.031 64.4121H94.7228C94.1976 64.4121 93.6939 64.6222 93.3225 64.9962C92.9511 65.3702 92.7424 65.8774 92.7424 66.4063C92.7424 66.9352 92.9511 67.4424 93.3225 67.8164C93.6939 68.1904 94.1976 68.4005 94.7228 68.4005H99.1788L94.6832 80.3656C94.5914 80.6117 94.5488 80.8737 94.5578 81.1364C94.5669 81.3992 94.6275 81.6575 94.7361 81.8966C94.8447 82.1357 94.9991 82.3508 95.1906 82.5295C95.382 82.7083 95.6067 82.8471 95.8517 82.9381C96.0745 83.0166 96.3088 83.057 96.5448 83.0578C96.9495 83.0591 97.3448 82.9356 97.6776 82.7038C98.0104 82.4721 98.2648 82.1432 98.4064 81.7615L103.892 67.0445C103.993 66.7505 104.024 66.4368 103.982 66.1287C103.941 65.8205 103.829 65.5263 103.654 65.2696Z" fill="#EEEEEE"/>
<path d="M60.818 92.0117C53.389 92.0192 46.0807 90.1207 39.5825 86.4954C33.0842 82.87 27.6104 77.6374 23.6774 71.2912C19.7444 64.9449 17.4819 57.6943 17.1034 50.2234C16.7249 42.7525 18.2429 35.3077 21.5141 28.5914C24.7854 21.8751 29.702 16.1087 35.8001 11.8363C41.8982 7.56393 48.9768 4.92642 56.3679 4.17264C63.759 3.41886 71.219 4.57366 78.044 7.52808C84.869 10.4825 90.834 15.1391 95.3761 21.0586L86.6029 16.9306C86.1249 16.7059 85.5779 16.6815 85.0821 16.8629C84.5862 17.0443 84.1823 17.4165 83.9591 17.8978C83.7358 18.3791 83.7116 18.93 83.8917 19.4293C84.0719 19.9285 84.4416 20.3353 84.9196 20.5601L99.7924 27.5198C100.12 27.7416 100.506 27.8597 100.901 27.8588L101.04 27.8987H101.159C101.536 27.8821 101.9 27.7575 102.209 27.5397C102.496 27.3278 102.721 27.0419 102.86 26.712C103 26.3821 103.048 26.0205 103.001 25.6652L101.04 10.1504C101.005 9.88854 100.919 9.63619 100.787 9.40778C100.655 9.17936 100.48 8.97935 100.271 8.81917C100.062 8.659 99.8243 8.54178 99.5706 8.47423C99.3168 8.40667 99.0524 8.3901 98.7923 8.42546C98.5323 8.46081 98.2816 8.5474 98.0548 8.68028C97.828 8.81316 97.6293 8.98973 97.4703 9.1999C97.3112 9.41008 97.1948 9.64974 97.1277 9.90522C97.0606 10.1607 97.0442 10.427 97.0793 10.6889L98.0101 17.9277C92.9629 11.6051 86.4067 6.67356 78.9539 3.59381C71.501 0.51406 63.3945 -0.613472 55.3916 0.316522C47.3887 1.24652 39.7504 4.2037 33.19 8.91188C26.6297 13.6201 21.3614 19.9256 17.8771 27.2397C14.3928 34.5538 12.8062 42.6378 13.2655 50.7367C13.7248 58.8355 16.215 66.6851 20.5036 73.5522C24.7921 80.4193 30.739 86.08 37.789 90.0056C44.8389 93.9311 52.7619 95.9935 60.818 96C61.3432 96 61.8469 95.7899 62.2183 95.4159C62.5897 95.042 62.7984 94.5347 62.7984 94.0058C62.7984 93.477 62.5897 92.9697 62.2183 92.5957C61.8469 92.2218 61.3432 92.0117 60.818 92.0117Z" fill="#6D94C4"/>
<path d="M12.3574 22.1156C12.5835 22.2474 12.8332 22.3329 13.0922 22.3672C13.3512 22.4015 13.6143 22.3838 13.8665 22.3152C14.1187 22.2466 14.3549 22.1285 14.5616 21.9676C14.7682 21.8067 14.9412 21.6062 15.0706 21.3777C17.2754 17.4996 19.9715 13.9267 23.0913 10.7487C23.4515 10.3733 23.6512 9.87069 23.6475 9.3487C23.6438 8.82672 23.437 8.327 23.0715 7.95685C22.7004 7.58543 22.1985 7.37695 21.6753 7.37695C21.1521 7.37695 20.6501 7.58543 20.2791 7.95685C16.9175 11.3745 14.0087 15.2152 11.6247 19.3835C11.4937 19.6111 11.4088 19.8626 11.3748 20.1234C11.3408 20.3842 11.3583 20.6492 11.4264 20.9031C11.4945 21.157 11.6118 21.3949 11.7716 21.603C11.9314 21.8111 12.1305 21.9853 12.3574 22.1156Z" fill="#6D94C4"/>
<path d="M7.96082 48C7.96082 47.4712 7.75217 46.9639 7.38077 46.5899C7.00937 46.216 6.50565 46.0059 5.98041 46.0059C5.45517 46.0059 4.95145 46.216 4.58005 46.5899C4.20865 46.9639 4 47.4712 4 48C4.01818 55.8661 5.64532 63.6441 8.77999 70.8491C11.9147 78.0541 16.4897 84.5316 22.2198 89.8779C22.588 90.215 23.0688 90.4001 23.5665 90.3964C23.838 90.3955 24.1065 90.3384 24.3552 90.2286C24.6039 90.1188 24.8275 89.9587 25.0122 89.7583C25.381 89.3846 25.588 88.8792 25.588 88.3523C25.588 87.8255 25.381 87.3201 25.0122 86.9465C19.6656 81.9823 15.3923 75.9621 12.4586 69.2613C9.52487 62.5606 7.99379 55.323 7.96082 48Z" fill="#6D94C4"/>
</g>
<defs>
<filter id="filter0_d" x="0" y="3.05176e-05" width="108" height="104" filterUnits="userSpaceOnUse" color-interpolation-filters="sRGB">
<feFlood flood-opacity="0" result="BackgroundImageFix"/>
<feColorMatrix in="SourceAlpha" type="matrix" values="0 0 0 0 0 0 0 0 0 0 0 0 0 0 0 0 0 0 127 0"/>
<feOffset dy="4"/>
<feGaussianBlur stdDeviation="2"/>
<feColorMatrix type="matrix" values="0 0 0 0 0 0 0 0 0 0 0 0 0 0 0 0 0 0 0.25 0"/>
<feBlend mode="normal" in2="BackgroundImageFix" result="effect1_dropShadow"/>
<feBlend mode="normal" in="SourceGraphic" in2="effect1_dropShadow" result="shape"/>
</filter>
</defs>
</svg>
