<svg width="747" height="110" viewBox="0 0 747 110" fill="none" xmlns="http://www.w3.org/2000/svg">
<path d="M100.244 54.9635C100.244 72.3588 95.8781 85.8804 87.1463 95.5282C78.4634 105.176 66.1463 110 50.1951 110C34.0488 110 21.6341 105.225 12.9512 95.6744C4.31707 86.0753 0 72.4563 0 54.8173C0 37.1783 4.34146 23.6323 13.0244 14.1794C21.7561 4.72647 34.1951 0 50.3415 0C66.2439 0 78.5366 4.79956 87.2195 14.3987C95.9024 23.9978 100.244 37.5194 100.244 54.9635ZM18.5854 54.9635C18.5854 68.1196 21.2439 78.1085 26.561 84.9302C31.878 91.7032 39.7561 95.0897 50.1951 95.0897C60.5854 95.0897 68.4146 91.7276 73.6829 85.0033C79 78.2791 81.6585 68.2658 81.6585 54.9635C81.6585 41.856 79.0244 31.9158 73.7561 25.1429C68.5366 18.3699 60.7317 14.9834 50.3415 14.9834C39.8537 14.9834 31.9268 18.3699 26.561 25.1429C21.2439 31.9158 18.5854 41.856 18.5854 54.9635Z" fill="#161828"/>
<path d="M207.073 1.68106V70.8239C207.073 78.7176 205.366 85.6368 201.951 91.5814C198.585 97.4773 193.683 102.033 187.244 105.249C180.854 108.416 173.195 110 164.268 110C151 110 140.683 106.492 133.317 99.4751C125.951 92.4585 122.268 82.8106 122.268 70.5316V1.68106H139.829V69.289C139.829 78.1085 141.878 84.6135 145.976 88.804C150.073 92.9945 156.366 95.0897 164.854 95.0897C181.341 95.0897 189.585 86.4408 189.585 69.1429V1.68106H207.073Z" fill="#161828"/>
<path d="M251.927 51.3821H264.073C272.22 51.3821 278.122 49.8715 281.78 46.8505C285.439 43.8295 287.268 39.3466 287.268 33.402C287.268 27.3599 285.293 23.0233 281.341 20.392C277.39 17.7608 271.439 16.4452 263.488 16.4452H251.927V51.3821ZM251.927 65.8538V108.538H234.439V1.68106H264.659C278.463 1.68106 288.683 4.26357 295.317 9.42857C301.951 14.5936 305.268 22.3898 305.268 32.8173C305.268 46.1196 298.341 55.5969 284.488 61.2492L314.707 108.538H294.805L269.195 65.8538H251.927Z" fill="#161828"/>
<path d="M406.171 108.538H388.683V16.6645H357.22V1.68106H437.634V16.6645H406.171V108.538Z" fill="#161828"/>
<path d="M514.61 108.538H454.098V1.68106H514.61V16.4452H471.585V45.5349H511.902V60.1528H471.585V93.701H514.61V108.538Z" fill="#161828"/>
<path d="M604.171 108.538L593.488 78.8638H552.585L542.122 108.538H523.683L563.707 1.24252H582.732L622.756 108.538H604.171ZM588.878 63.8073L578.854 34.7176C578.122 32.7686 577.098 29.6988 575.781 25.5083C574.512 21.3178 573.634 18.2481 573.146 16.299C571.829 22.2924 569.902 28.8461 567.366 35.9601L557.707 63.8073H588.878Z" fill="#161828"/>
<path d="M683.122 108.538L652.098 19.2957H651.512C652.341 32.5493 652.756 44.9745 652.756 56.5714V108.538H636.878V1.68106H661.537L691.244 86.6844H691.683L722.268 1.68106H747V108.538H730.171V55.6944C730.171 50.3832 730.293 43.464 730.537 34.9369C730.829 26.4097 731.073 21.2447 731.268 19.4419H730.683L698.561 108.538H683.122Z" fill="#161828"/>
</svg>
