<svg width="110" height="113" viewBox="0 0 110 113" fill="none" xmlns="http://www.w3.org/2000/svg">
<g filter="url(#filter0_d)">
<path d="M94.1614 16.9999L58.8308 5.59985C56.3386 4.80009 53.6614 4.80009 51.1692 5.59985L15.8386 16.9999C15.0112 17.2477 14.2865 17.7606 13.7743 18.4607C13.2621 19.1608 12.9904 20.0101 13.0003 20.8799C13.0031 35.4752 13.7451 50.0608 15.2233 64.58C17.5456 89.26 42.6541 105 55 105C67.3459 105 92.4544 89.26 94.6973 64.66C96.2092 50.116 96.9777 35.5034 96.9997 20.8799C97.0096 20.0101 96.7379 19.1608 96.2257 18.4607C95.7135 17.7606 94.9888 17.2477 94.1614 16.9999ZM90.8268 64.2C88.6633 87.1 64.8846 101 55 101C45.1154 101 21.2573 87 19.2724 64.14C17.7257 49.7393 16.9571 35.2646 16.97 20.7799L52.3601 9.41986C54.0762 8.86031 55.9238 8.86031 57.6399 9.41986L93.03 20.8599C93.0245 35.3348 92.2892 49.8002 90.8268 64.2Z" fill="#6D94C4"/>
<path d="M58.1756 91.28C57.7606 91.4704 57.4233 91.7989 57.2205 92.2104C57.0176 92.6219 56.9615 93.0913 57.0617 93.5395C57.1618 93.9878 57.4121 94.3876 57.7704 94.6718C58.1287 94.956 58.5732 95.1072 59.0291 95.1C59.3188 95.1009 59.6046 95.0324 59.8628 94.9C69.5925 90.2591 77.6917 82.7468 83.0857 73.36C83.216 73.1301 83.3002 72.8767 83.3333 72.6141C83.3664 72.3516 83.3479 72.085 83.2788 71.8296C83.2096 71.5743 83.0913 71.3351 82.9305 71.1258C82.7696 70.9166 82.5694 70.7413 82.3414 70.61C82.1133 70.4786 81.8618 70.3939 81.6012 70.3605C81.3406 70.3271 81.076 70.3458 80.8226 70.4154C80.5692 70.4851 80.3319 70.6043 80.1242 70.7664C79.9165 70.9284 79.7425 71.1301 79.6122 71.36C74.6422 80.0411 67.1645 86.9898 58.1756 91.28Z" fill="#6D94C4"/>
<path d="M46.3659 18.4599C46.287 18.2087 46.1596 17.9757 45.991 17.7742C45.8224 17.5728 45.616 17.4069 45.3836 17.2861C45.1512 17.1653 44.8974 17.092 44.6368 17.0703C44.3762 17.0486 44.1139 17.0791 43.865 17.1599L23.8575 23.5799C23.4393 23.7119 23.0762 23.9797 22.8249 24.3415C22.5735 24.7033 22.4481 25.1387 22.4681 25.5799C22.4681 25.6799 22.4681 35.8399 22.9644 47.5799C22.9644 48.1104 23.1735 48.6191 23.5457 48.9942C23.9179 49.3692 24.4228 49.5799 24.9492 49.5799C25.4756 49.5799 25.9805 49.3692 26.3527 48.9942C26.725 48.6191 26.9341 48.1104 26.9341 47.5799C26.5768 38.5599 26.4974 30.4599 26.4776 27.2599L45.0956 21.2599C45.3773 21.1833 45.6387 21.045 45.8613 20.855C46.0839 20.665 46.2622 20.4279 46.3834 20.1605C46.5047 19.8932 46.5661 19.6022 46.563 19.3082C46.56 19.0143 46.4927 18.7246 46.3659 18.4599Z" fill="#6D94C4"/>
<path d="M42.7732 51.5799C42.5906 51.3754 42.3681 51.2109 42.1196 51.097C41.871 50.983 41.6018 50.9219 41.3288 50.9176C41.0558 50.9132 40.7848 50.9657 40.5328 51.0716C40.2808 51.1776 40.0532 51.3349 39.8643 51.5335C39.6754 51.7322 39.5292 51.968 39.4348 52.2261C39.3404 52.4843 39.2999 52.7594 39.3159 53.034C39.3318 53.3087 39.4038 53.5771 39.5274 53.8225C39.651 54.0678 39.8235 54.2848 40.0341 54.46L51.9433 66.06C52.3193 66.4149 52.8175 66.6085 53.3327 66.6C53.841 66.6033 54.3312 66.41 54.7022 66.06L76.8732 44.8199C77.2548 44.4513 77.4755 43.945 77.4867 43.4124C77.4978 42.8798 77.2986 42.3645 76.9327 41.9799C76.5669 41.5954 76.0644 41.373 75.5358 41.3617C75.0072 41.3505 74.4959 41.5513 74.1142 41.9199L53.4915 61.92L42.7732 51.5799Z" fill="#EEEEEE"/>
</g>
<defs>
<filter id="filter0_d" x="-4" y="3.05176e-05" width="118" height="118" filterUnits="userSpaceOnUse" color-interpolation-filters="sRGB">
<feFlood flood-opacity="0" result="BackgroundImageFix"/>
<feColorMatrix in="SourceAlpha" type="matrix" values="0 0 0 0 0 0 0 0 0 0 0 0 0 0 0 0 0 0 127 0"/>
<feOffset dy="4"/>
<feGaussianBlur stdDeviation="2"/>
<feColorMatrix type="matrix" values="0 0 0 0 0 0 0 0 0 0 0 0 0 0 0 0 0 0 0.25 0"/>
<feBlend mode="normal" in2="BackgroundImageFix" result="effect1_dropShadow"/>
<feBlend mode="normal" in="SourceGraphic" in2="effect1_dropShadow" result="shape"/>
</filter>
</defs>
</svg>
