<svg width="110" height="116" viewBox="0 0 110 116" fill="none" xmlns="http://www.w3.org/2000/svg">
<g filter="url(#filter0_d)">
<path d="M64.8796 78.686C61.7015 79.7496 58.3717 80.2889 55.0206 80.2827C54.4781 80.2827 53.9578 80.4984 53.5742 80.8823C53.1906 81.2662 52.9751 81.7869 52.9751 82.3298C52.9751 82.8727 53.1906 83.3934 53.5742 83.7773C53.9578 84.1612 54.4781 84.3768 55.0206 84.3768C58.8089 84.3781 62.5728 83.7699 66.1683 82.5754C66.4235 82.4907 66.6595 82.3566 66.8629 82.1806C67.0662 82.0047 67.233 81.7903 67.3536 81.5499C67.4742 81.3094 67.5463 81.0475 67.5658 80.7792C67.5853 80.5108 67.5517 80.2413 67.4671 79.9859C67.3825 79.7305 67.2485 79.4943 67.0726 79.2908C66.8968 79.0872 66.6827 78.9203 66.4424 78.7996C66.2021 78.6789 65.9404 78.6068 65.6723 78.5873C65.4042 78.5678 65.1348 78.6013 64.8796 78.686Z" fill="#6D94C4"/>
<path d="M86.2343 48.8808C86.2343 49.4237 86.4498 49.9444 86.8334 50.3283C87.217 50.7122 87.7372 50.9279 88.2797 50.9279C88.8222 50.9279 89.3425 50.7122 89.7261 50.3283C90.1097 49.9444 90.3252 49.4237 90.3252 48.8808C90.3367 45.0686 89.7287 41.2798 88.5252 37.6629C88.3567 37.1474 87.9906 36.7198 87.5074 36.4742C87.0242 36.2285 86.4633 36.1849 85.9479 36.3528C85.6905 36.4361 85.4522 36.5698 85.2467 36.746C85.0413 36.9221 84.8728 37.1374 84.7511 37.3792C84.6293 37.621 84.5567 37.8845 84.5374 38.1546C84.5182 38.4247 84.5526 38.6959 84.6388 38.9525C85.7015 42.1544 86.2402 45.507 86.2343 48.8808Z" fill="#6D94C4"/>
<path d="M55.0206 13.3642C54.4781 13.3642 53.9578 13.5799 53.5742 13.9638C53.1906 14.3477 52.9751 14.8684 52.9751 15.4113C52.9751 15.9542 53.1906 16.4749 53.5742 16.8588C53.9578 17.2427 54.4781 17.4583 55.0206 17.4583C62.9632 17.4486 70.6067 20.4894 76.3751 25.9536C76.7543 26.3194 77.2598 26.5247 77.7864 26.5268C78.0635 26.5231 78.3368 26.4632 78.59 26.3506C78.8432 26.238 79.0708 26.0751 79.2592 25.8718C79.6401 25.4882 79.854 24.9694 79.854 24.4286C79.854 23.8878 79.6401 23.3689 79.2592 22.9854C72.7162 16.7788 64.0356 13.3332 55.0206 13.3642Z" fill="#6D94C4"/>
<path d="M45.1617 78.686C40.6701 77.1688 36.5786 74.6567 33.1922 71.3369C29.8058 68.017 27.2117 63.975 25.6033 59.5122C23.995 55.0494 23.4139 50.2809 23.9033 45.562C24.3927 40.8431 25.94 36.2957 28.4299 32.2586C28.621 32.0307 28.7602 31.7638 28.8378 31.4766C28.9154 31.1893 28.9295 30.8886 28.8791 30.5954C28.8286 30.3021 28.715 30.0234 28.5459 29.7786C28.3769 29.5338 28.1566 29.3289 27.9003 29.178C27.644 29.0272 27.358 28.934 27.0621 28.9051C26.7662 28.8762 26.4675 28.9121 26.1869 29.0105C25.9063 29.1089 25.6505 29.2673 25.4374 29.4747C25.2242 29.6821 25.0588 29.9336 24.9526 30.2115C22.1488 34.768 20.4076 39.8985 19.8583 45.2214C19.3091 50.5443 19.966 55.9226 21.7802 60.9563C23.5944 65.9901 26.5192 70.5498 30.337 74.2962C34.1549 78.0427 38.7676 80.8796 43.8321 82.5959C44.0443 82.6613 44.2647 82.6957 44.4867 82.6982C44.912 82.6951 45.3258 82.5593 45.6704 82.3098C46.015 82.0603 46.2733 81.7095 46.4094 81.3062C46.5001 81.0522 46.5398 80.7828 46.5261 80.5134C46.5125 80.244 46.4457 79.98 46.3298 79.7365C46.2138 79.493 46.051 79.2749 45.8505 79.0946C45.65 78.9143 45.4159 78.7754 45.1617 78.686Z" fill="#6D94C4"/>
<path d="M88.1568 80.0371L87.8909 79.7709C93.8755 73.3566 97.857 65.3322 99.3463 56.6838C100.836 48.0355 99.7675 39.1401 96.2735 31.0911C92.7796 23.042 87.0119 16.1899 79.6793 11.377C72.3468 6.56406 63.7689 4.00003 55 4.00003C46.2311 4.00003 37.6532 6.56406 30.3207 11.377C22.9882 16.1899 17.2205 23.042 13.7265 31.0911C10.2325 39.1401 9.1645 48.0355 10.6537 56.6838C12.143 65.3322 16.1245 73.3566 22.1091 79.7709C22.1091 79.8733 21.925 79.9347 21.8432 80.0371L15.5227 89.0646C15.1029 89.6521 14.8458 90.3402 14.7775 91.0593C14.7092 91.7783 14.8323 92.5027 15.1341 93.1587C15.4271 93.8315 15.8874 94.4179 16.471 94.8623C17.0546 95.3066 17.7422 95.594 18.4682 95.6971L28.5727 97.2119L33.625 105.953C33.998 106.557 34.5142 107.06 35.1279 107.417C35.7416 107.775 36.4338 107.975 37.1432 108H37.3477C38.0248 108.004 38.6929 107.845 39.2949 107.535C39.8968 107.225 40.4148 106.773 40.8046 106.219L48.9864 94.6121C49.1633 94.3563 49.2756 94.0612 49.3136 93.7524C51.2328 94.0065 53.1664 94.1364 55.1023 94.1413C57.017 94.1327 58.9295 94.0097 60.8295 93.7729C60.872 94.0806 60.984 94.3746 61.1568 94.6326L69.2364 106.219C69.6181 106.762 70.123 107.206 70.7097 107.516C71.2964 107.825 71.9482 107.991 72.6114 108H72.8159C73.5257 107.976 74.2186 107.777 74.8326 107.42C75.4466 107.063 75.9625 106.559 76.3341 105.953L81.4068 97.2119L91.5114 95.6971C92.2322 95.5946 92.915 95.3094 93.4949 94.8688C94.0748 94.4281 94.5326 93.8466 94.825 93.1792C95.1268 92.5231 95.2498 91.7988 95.1816 91.0798C95.1133 90.3607 94.8562 89.6725 94.4363 89.0851L88.1568 80.0371ZM37.45 103.906L39.1273 105.093L37.0818 103.844L31.5591 94.2437C31.4051 93.9762 31.1926 93.747 30.9376 93.5733C30.6825 93.3996 30.3915 93.2858 30.0864 93.2406L19.0614 91.6234C19.0189 91.6245 18.9773 91.6108 18.9438 91.5847C18.9102 91.5586 18.8867 91.5216 18.8773 91.4801L25.0137 82.6778C30.6922 87.8022 37.5854 91.389 45.0386 93.0973L37.45 103.906ZM14.1114 48.8808C14.1558 40.7931 16.5928 32.8998 21.1149 26.1967C25.637 19.4936 32.0415 14.2811 39.5205 11.2169C46.9995 8.15264 55.2178 7.37393 63.1385 8.97899C71.0592 10.5841 78.3274 14.501 84.0261 20.2356C89.7249 25.9702 93.5988 33.2655 95.1592 41.2011C96.7195 49.1368 95.8963 57.3571 92.7935 64.825C89.6907 72.293 84.4473 78.6739 77.7248 83.1627C71.0023 87.6515 63.1019 90.0471 55.0205 90.0472C44.145 90.0038 33.7307 85.6456 26.0617 77.9283C18.3927 70.2111 14.0951 59.7648 14.1114 48.8808ZM90.9182 91.6234L79.8114 93.2816C79.5098 93.3297 79.2229 93.4447 78.9716 93.6183C78.7203 93.7919 78.511 94.0195 78.3591 94.2846L72.7954 103.906H72.5091L64.9409 93.0564C72.3986 91.3666 79.2997 87.7935 84.9864 82.6778L91.1227 91.4392C91.1227 91.4392 91.0818 91.6234 90.9182 91.6234Z" fill="#6D94C4"/>
<path d="M63.5293 61.8796C63.5293 61.3367 63.3138 60.816 62.9302 60.4321C62.5466 60.0482 62.0264 59.8325 61.4839 59.8325H57.0657V35.8614C57.0681 35.4548 56.9494 35.0567 56.7248 34.7179C56.5002 34.3791 56.1799 34.1149 55.8046 33.9589C55.4294 33.803 55.0163 33.7625 54.6179 33.8425C54.2196 33.9224 53.8541 34.1193 53.568 34.408L47.1043 40.9177C46.915 41.1085 46.765 41.3349 46.663 41.5837C46.5611 41.8326 46.5091 42.0991 46.51 42.3681C46.511 42.6371 46.5649 42.9032 46.6686 43.1514C46.7723 43.3995 46.9239 43.6247 47.1146 43.8143C47.4997 44.197 48.0211 44.411 48.5638 44.4091C48.8326 44.4081 49.0986 44.3542 49.3465 44.2504C49.5944 44.1466 49.8195 43.9949 50.0089 43.804L52.9748 40.8153V59.8325H48.5566C48.0141 59.8325 47.4939 60.0482 47.1103 60.4321C46.7267 60.816 46.5112 61.3367 46.5112 61.8796C46.5112 62.4225 46.7267 62.9432 47.1103 63.3271C47.4939 63.711 48.0141 63.9267 48.5566 63.9267H61.4839C62.0264 63.9267 62.5466 63.711 62.9302 63.3271C63.3138 62.9432 63.5293 62.4225 63.5293 61.8796Z" fill="#EEEEEE"/>
</g>
<defs>
<filter id="filter0_d" x="-4" y="3.05176e-05" width="118" height="118" filterUnits="userSpaceOnUse" color-interpolation-filters="sRGB">
<feFlood flood-opacity="0" result="BackgroundImageFix"/>
<feColorMatrix in="SourceAlpha" type="matrix" values="0 0 0 0 0 0 0 0 0 0 0 0 0 0 0 0 0 0 127 0"/>
<feOffset dy="4"/>
<feGaussianBlur stdDeviation="2"/>
<feColorMatrix type="matrix" values="0 0 0 0 0 0 0 0 0 0 0 0 0 0 0 0 0 0 0.25 0"/>
<feBlend mode="normal" in2="BackgroundImageFix" result="effect1_dropShadow"/>
<feBlend mode="normal" in="SourceGraphic" in2="effect1_dropShadow" result="shape"/>
</filter>
</defs>
</svg>
