<svg width="118" height="114" viewBox="0 0 118 114" fill="none" xmlns="http://www.w3.org/2000/svg">
<g clip-path="url(#clip0)" filter="url(#filter0_d)">
<path d="M27.3175 86.5685C27.0118 86.133 26.5478 85.8376 26.027 85.7467C25.5063 85.6559 24.9711 85.777 24.5385 86.0837L24.2586 86.2857L20.0202 83.2963C20.6375 82.8227 21.1389 82.2121 21.4855 81.5116C21.8322 80.8112 22.0149 80.0396 22.0195 79.2565C22.7451 79.5521 23.5166 79.7162 24.2986 79.7413C25.2977 79.7024 26.2779 79.4548 27.1776 79.0141C27.111 80.0199 27.3464 81.0225 27.8529 81.891C28.3594 82.7595 29.1135 83.4534 30.0165 83.882H30.1965C30.4325 84.0128 30.6802 84.121 30.9362 84.2052C31.135 84.2357 31.3372 84.2357 31.536 84.2052C31.9532 84.1951 32.3568 84.0533 32.6902 83.7997C33.0237 83.5462 33.2702 83.1935 33.3953 82.7913C33.4783 82.5341 33.5094 82.2627 33.4867 81.9932C33.464 81.7237 33.3879 81.4615 33.2629 81.2222C33.138 80.983 32.9668 80.7715 32.7594 80.6004C32.552 80.4293 32.3128 80.302 32.0558 80.226L31.7559 80.0846L31.2961 79.8422C30.918 78.6151 30.7955 77.3222 30.9362 76.0449C32.715 74.3043 33.8329 71.9882 34.095 69.5004C34.235 68.5309 34.3349 67.3189 34.3949 66.0262C34.4044 65.7024 34.3367 65.3811 34.1976 65.0894C34.0584 64.7976 33.8518 64.5439 33.5952 64.3497C33.4224 64.0409 33.1657 63.7886 32.8555 63.6225C31.652 62.9425 30.7246 61.8553 30.2364 60.5523C30.127 60.1041 29.8689 59.7074 29.5051 59.4281C29.1414 59.1487 28.6939 59.0037 28.2372 59.0172C27.7867 59.0308 27.3539 59.1978 27.0091 59.4911C26.6644 59.7845 26.4278 60.1869 26.3379 60.6331C25.978 61.643 21.2397 63.1782 15.8817 63.5417C15.6189 63.5597 15.3622 63.6299 15.1264 63.7483C14.8906 63.8668 14.6802 64.0311 14.5075 64.232C14.3347 64.4328 14.2029 64.6662 14.1196 64.9186C14.0364 65.171 14.0033 65.4376 14.0224 65.703C14.0224 65.703 14.0224 65.804 14.0224 65.8646C14.0224 65.9252 14.0224 66.0666 14.0224 66.1878C14.0224 67.4805 14.1823 68.6925 14.3023 69.6014C14.6138 72.3592 15.9414 74.8975 18.0209 76.7114C18.1047 77.8006 17.9895 78.8961 17.681 79.9432L17.2012 80.1856L16.9213 80.327C16.3991 80.4882 15.8639 80.6031 15.3219 80.6704H14.7421C12.9665 80.9148 11.2188 81.3342 9.52402 81.9227C8.82428 78.7313 13.1227 63.9053 15.8217 58.391C17.5011 54.937 21.8195 55.4218 26.6178 56.2701C27.9863 56.634 29.4089 56.7435 30.8162 56.5933C30.861 56.7247 30.9144 56.8529 30.9762 56.9771C32.5756 59.7241 36.5941 68.0259 36.0143 73.3988C35.956 73.9345 36.1107 74.4717 36.4444 74.8922C36.7781 75.3126 37.2634 75.582 37.7937 75.6409C38.3239 75.6998 38.8556 75.5435 39.2718 75.2064C39.688 74.8692 39.9545 74.3789 40.0129 73.8432C40.8126 66.4908 35.3746 56.5327 34.5549 55.0986C34.3667 54.5239 34.0638 53.9943 33.6649 53.5426C33.266 53.091 32.7795 52.7268 32.2357 52.4727C31.8556 52.327 31.4496 52.2625 31.0436 52.2833C30.6375 52.3042 30.2401 52.41 29.8766 52.5939C29.0166 52.5298 28.1617 52.4083 27.3175 52.2304C23.139 51.483 15.3219 50.0893 12.223 56.5327C10.8036 59.4616 3.40626 79.3575 6.22523 84.4274C5.09667 86.1524 4.34679 88.1015 4.02604 90.1437C3.98342 90.4079 3.9932 90.6779 4.05479 90.9382C4.11638 91.1985 4.22856 91.4439 4.38482 91.66C4.54108 91.8761 4.73829 92.0588 4.965 92.1972C5.1917 92.3357 5.44339 92.4272 5.70542 92.4666H6.0253C6.49303 92.4761 6.94925 92.3196 7.31455 92.0244C7.67985 91.7291 7.93111 91.3138 8.02457 90.8507C8.2509 89.3896 8.81986 88.0045 9.68397 86.8109C11.3561 85.6955 13.2692 85.0027 15.2619 84.791L23.0991 90.3457C23.4389 90.5854 23.8441 90.7124 24.2586 90.7093C24.6663 90.7083 25.0639 90.5814 25.3982 90.3457L26.8177 89.3357C27.2407 89.0306 27.5294 88.571 27.6228 88.0545C27.7161 87.5379 27.6066 87.0049 27.3175 86.5685ZM27.8573 64.5921C28.5778 65.5092 29.4423 66.3008 30.4164 66.9352C30.4164 67.7229 30.2964 68.4905 30.1965 69.1974C29.9325 70.7431 29.2224 72.1755 28.1553 73.3147C27.0882 74.4539 25.7117 75.2491 24.1987 75.6005C22.6844 75.2304 21.3101 74.4216 20.2446 73.2733C19.1791 72.1251 18.4688 70.6874 18.2009 69.1368C18.2009 68.5915 18.0809 68.0057 18.0209 67.3997C21.4592 67.1762 24.8116 66.2193 27.8573 64.5921Z" fill="#6D94C4"/>
<path d="M68.3225 56.8963C68.5584 57.0174 68.8158 57.0899 69.0798 57.1097C69.3437 57.1295 69.6089 57.0962 69.86 57.0116C70.111 56.9271 70.343 56.793 70.5424 56.6172C70.7418 56.4413 70.9046 56.2273 71.0215 55.9874C71.2572 55.5079 71.2948 54.9535 71.1261 54.4459C70.9574 53.9384 70.5962 53.5193 70.1218 53.2807C63.8799 50.2037 56.9298 48.8914 50.0092 49.4833C49.6343 49.5277 49.2796 49.6783 48.986 49.9178C48.6923 50.1573 48.4717 50.4759 48.3498 50.8367L47.1502 54.4927C46.9853 54.999 47.0252 55.5506 47.2611 56.0273C47.497 56.504 47.9099 56.8672 48.4098 57.0377C48.6151 57.1106 48.8319 57.1449 49.0495 57.1387C49.4687 57.1398 49.8775 57.0078 50.2183 56.7613C50.5592 56.5148 50.8147 56.1664 50.9488 55.7652L51.7085 53.4423C57.4423 53.2093 63.1456 54.395 68.3225 56.8963Z" fill="#6D94C4"/>
<path d="M75.2199 88.6288C73.8633 88.445 72.5252 88.1408 71.2214 87.7199L70.7016 87.4573C69.1021 86.6696 68.4224 86.3464 68.4224 79.196C72.1038 76.2283 74.4869 71.9207 75.06 67.1978C75.1999 66.1273 75.3199 64.8951 75.4198 63.5822C83.157 56.553 76.0396 39.3435 75.7397 38.6972C75.6083 38.403 75.409 38.145 75.1585 37.9447C74.9081 37.7444 74.6138 37.6076 74.3002 37.5458C73.9869 37.4765 73.6617 37.4843 73.352 37.5687C73.0423 37.6531 72.7572 37.8115 72.5209 38.0306C71.8893 38.4921 71.12 38.7203 70.3417 38.677C69.7819 38.677 68.5024 38.475 67.1629 38.273C60.2054 37.2428 45.7307 35.0816 41.1724 44.6154C39.8285 47.6148 39.2471 50.9058 39.481 54.1897C39.715 57.4736 40.7567 60.6465 42.5119 63.4206L42.6318 63.562C42.7318 64.8749 42.8517 66.1071 42.9917 67.1372C43.2948 69.5662 44.0732 71.9101 45.2813 74.0323C46.4895 76.1545 48.1034 78.0128 50.0291 79.4989C50.0291 86.3464 49.3094 86.6898 47.73 87.4573L47.2301 87.7199C45.8462 88.1469 44.428 88.451 42.9917 88.6288C38.4933 89.3762 32.9953 90.3054 29.8765 93.3554C26.7576 96.4054 25.658 102.97 25.5581 103.677C25.4713 104.205 25.5951 104.745 25.9025 105.181C26.2098 105.616 26.6755 105.911 27.1975 106H27.5174C27.9966 106.006 28.462 105.838 28.829 105.527C29.196 105.215 29.44 104.781 29.5166 104.303C29.9454 101.367 31.1007 98.5884 32.8754 96.2236C34.9946 94.0826 40.0728 93.2342 43.8114 92.608C45.157 92.4076 46.4916 92.1379 47.8099 91.8001C51.0226 94.2258 54.936 95.5163 58.9465 95.4724C62.957 95.4286 66.8418 94.053 70.0018 91.5577C71.4509 92.0278 72.9352 92.379 74.4402 92.608C77.839 93.214 82.4373 94.0624 84.6565 96.2236C86.4255 98.5895 87.574 101.369 87.9952 104.303C88.0719 104.781 88.3159 105.215 88.6829 105.527C89.0498 105.838 89.5153 106.006 89.9945 106H90.3144C90.5764 105.961 90.8281 105.869 91.0548 105.731C91.2815 105.592 91.4787 105.409 91.635 105.193C91.7912 104.977 91.9034 104.732 91.965 104.472C92.0266 104.211 92.0364 103.941 91.9938 103.677C91.8738 102.97 90.7942 96.668 87.5154 93.3554C84.2366 90.0428 79.3584 89.3762 75.2199 88.6288ZM47.1102 66.612C46.8903 65.0163 46.7303 63.0368 46.6104 60.916C46.5789 60.457 46.3933 60.0226 46.0843 59.6847C45.7753 59.3468 45.3614 59.1256 44.911 59.0577C44.0019 57.0551 43.5313 54.8779 43.5313 52.6748C43.5313 50.4717 44.0019 48.2945 44.911 46.2919C48.1498 39.4445 60.6452 41.323 66.663 42.2522C67.9048 42.4842 69.1604 42.6326 70.4217 42.6965C71.2661 42.7177 72.1088 42.6087 72.9207 42.3734C74.5202 46.9787 76.3995 54.8563 74.0004 59.1586H73.7604C73.4978 59.145 73.2351 59.1839 72.9874 59.2731C72.7397 59.3622 72.5118 59.4998 72.3168 59.6781C72.1218 59.8563 71.9635 60.0717 71.851 60.3118C71.7385 60.552 71.674 60.8122 71.6612 61.0775C71.5413 63.1984 71.3813 65.1173 71.1614 66.8544C70.4417 74.6108 62.3646 79.5393 59.1658 79.5393C55.9669 79.5393 47.8299 74.5098 47.1102 66.612ZM51.8684 89.6388C53.2879 88.2855 53.8677 86.2656 54.1076 82.044C55.662 82.8909 57.3824 83.3806 59.1458 83.4781C61.0431 83.36 62.889 82.8074 64.5438 81.8622C64.7038 85.902 65.2236 87.9219 66.4031 89.2348C64.2393 90.6137 61.748 91.3788 59.1906 91.4499C56.6332 91.521 54.1041 90.8954 51.8684 89.6388Z" fill="#6D94C4"/>
<path d="M111.167 79.1151C109.168 77.0952 105.909 76.6307 103.17 76.1863C102.443 76.0791 101.722 75.9307 101.011 75.7419L100.711 75.5803L100.251 75.3581C99.9465 74.3032 99.858 73.1967 99.9912 72.1061C102.1 70.3194 103.446 67.7801 103.75 65.0163C105.194 63.1368 106.053 60.8658 106.217 58.492C106.381 56.1182 105.842 53.7488 104.669 51.685C101.751 45.9283 94.1733 46.9787 90.5346 47.4836C90.0391 47.5757 89.5383 47.6364 89.0352 47.6654C87.8348 47.7341 86.667 48.086 85.6255 48.6928C84.5839 49.2997 83.6975 50.1446 83.0374 51.1598C82.9597 51.2674 82.8927 51.3824 82.8375 51.5032C82.6975 51.8668 79.4387 60.0272 83.7371 64.4911C83.7371 64.6325 83.7371 64.8143 83.7371 64.9557C84.0104 67.4562 85.1339 69.7835 86.916 71.5405C87.0424 72.8166 86.927 74.1054 86.5761 75.3379C86.4217 75.4354 86.2614 75.5231 86.0963 75.6005L85.8164 75.7419C85.1603 75.929 84.4923 76.0707 83.8171 76.1661C81.2927 76.4268 78.8698 77.3074 76.7597 78.7313C76.4375 78.9925 76.2033 79.348 76.0892 79.7491C75.9751 80.1502 75.9869 80.5772 76.1227 80.9713C76.2586 81.3654 76.512 81.7073 76.848 81.95C77.184 82.1927 77.5862 82.3243 77.9992 82.3267C78.4664 82.3277 78.9191 82.1633 79.2788 81.8622C80.8875 80.9115 82.6817 80.3257 84.5368 80.1453C85.1766 80.0443 85.7564 79.9231 86.2762 79.8019C88.3175 81.5597 90.9113 82.5263 93.5935 82.5287C96.2386 82.5124 98.7962 81.5701 100.831 79.8625L102.51 80.1655C104.551 80.3028 106.531 80.9258 108.288 81.9834C109.155 83.1754 109.724 84.5613 109.948 86.0231C110.024 86.5011 110.268 86.9353 110.635 87.2468C111.002 87.5582 111.468 87.7261 111.947 87.7198H112.267C112.787 87.6493 113.26 87.3745 113.581 86.955C113.903 86.5354 114.049 86.0048 113.986 85.4778C113.62 83.1424 112.647 80.9469 111.167 79.1151ZM87.7957 64.5921C87.7957 64.0669 87.6757 63.5014 87.6357 62.9156C88.6023 62.1075 89.4623 61.1775 90.1948 60.1483C93.1673 61.8636 96.4515 62.9559 99.8512 63.36C99.8512 63.8043 99.8512 64.2487 99.7313 64.6527C99.4563 66.1959 98.7428 67.6249 97.6778 68.7654C96.6128 69.906 95.2423 70.7088 93.7335 71.0759C92.2276 70.6942 90.8643 69.8778 89.8099 68.7264C88.7555 67.5751 88.0556 66.1385 87.7957 64.5921ZM86.4961 53.3413C86.7873 52.9251 87.1588 52.5728 87.5883 52.3055C88.0178 52.0382 88.4963 51.8615 88.9952 51.786C89.6654 51.752 90.333 51.6778 90.9945 51.5638C93.9334 51.1598 99.3914 50.3923 100.991 53.5837C102.023 55.3391 102.379 57.4174 101.99 59.4212H101.751C96.4925 58.7142 91.9941 56.9771 91.7542 55.9672C91.6649 55.5003 91.4154 55.0803 91.0497 54.781C90.684 54.4818 90.2255 54.3224 89.7549 54.3311C89.2982 54.3176 88.8508 54.4626 88.487 54.7419C88.1232 55.0212 87.8651 55.418 87.7557 55.8662C87.3408 57.145 86.5954 58.2886 85.5965 59.1788C85.484 57.1576 85.7904 55.135 86.4961 53.2403V53.3413ZM90.0148 77.58C90.5502 76.5927 90.8513 75.4933 90.8945 74.3684C91.7973 74.8001 92.7758 75.0472 93.7735 75.0955C94.5409 75.0299 95.2915 74.8317 95.9926 74.5098C96.0311 75.6118 96.3551 76.6844 96.9323 77.6204C95.8464 78.1472 94.6538 78.4106 93.4494 78.3895C92.245 78.3685 91.0621 78.0636 89.9948 77.4992L90.0148 77.58Z" fill="#6D94C4"/>
<path d="M54.6276 14.7816C51.423 15.1011 48.2521 15.7026 45.1511 16.5793C44.6394 16.724 44.2056 17.0681 43.945 17.5359C43.6844 18.0037 43.6184 18.5569 43.7616 19.0739C43.9048 19.5909 44.2453 20.0292 44.7084 20.2925C45.1714 20.5557 45.719 20.6224 46.2307 20.4777C53.5292 18.3811 61.2071 18.0084 68.6709 19.3884C76.1347 20.7683 83.1844 23.864 89.275 28.4361C89.6097 28.7052 90.0268 28.8481 90.4545 28.8401C90.8741 28.8401 91.2831 28.7067 91.6235 28.4588C91.9639 28.2109 92.2185 27.8611 92.3512 27.4589C92.4839 27.0567 92.488 26.6226 92.3629 26.2179C92.2377 25.8133 91.9898 25.4586 91.6541 25.2043C81.0315 17.1842 67.8246 13.4666 54.6276 14.7816Z" fill="#EEEEEE"/>
<path d="M94.5728 30.254C94.2005 30.6324 93.9915 31.1444 93.9915 31.678C93.9915 32.2116 94.2005 32.7235 94.5728 33.102C95.4125 33.9302 96.2922 34.8795 97.2718 36.0106C97.4592 36.2261 97.6898 36.3988 97.9484 36.5172C98.2069 36.6356 98.4874 36.697 98.7713 36.6974C99.2547 36.7023 99.7234 36.5301 100.091 36.2126C100.491 35.8616 100.737 35.3644 100.774 34.8304C100.812 34.2964 100.638 33.7692 100.291 33.3646C99.2511 32.1527 98.2915 31.1225 97.3718 30.2136C96.9929 29.8488 96.4875 29.6487 95.9642 29.6563C95.4408 29.6638 94.9413 29.8784 94.5728 30.254Z" fill="#EEEEEE"/>
<path d="M30.0163 23.7297C23.1451 28.403 17.4437 34.6266 13.3624 41.9087C13.1916 42.2158 13.1032 42.5627 13.106 42.915C13.1089 43.2673 13.2029 43.6127 13.3787 43.917C13.5545 44.2212 13.8061 44.4737 14.1083 44.6493C14.4106 44.825 14.7531 44.9178 15.1018 44.9184C15.4594 44.9213 15.8113 44.8273 16.1208 44.6462C16.4302 44.465 16.6859 44.2032 16.8611 43.8882C20.6271 37.1469 25.8899 31.3804 32.2355 27.0423C32.5928 26.7158 32.8213 26.2699 32.8791 25.7866C32.9369 25.3034 32.82 24.8154 32.55 24.4123C32.2799 24.0092 31.8749 23.7181 31.4094 23.5927C30.9439 23.4673 30.4492 23.516 30.0163 23.7297Z" fill="#EEEEEE"/>
<path d="M5.1461 43.9084C5.41862 44.0496 5.71958 44.1256 6.02578 44.1306C6.40262 44.1295 6.77148 44.0209 7.08983 43.8172C7.40819 43.6135 7.66308 43.323 7.82512 42.9793C12.1399 33.9745 18.673 26.2412 26.7974 20.5215C34.9218 14.8018 44.3648 11.2877 54.2204 10.3163C64.0759 9.34492 74.0132 10.9489 83.0785 14.9743C92.1439 18.9998 100.033 25.3116 105.989 33.304C106.136 33.5421 106.33 33.7466 106.56 33.9047C106.789 34.0627 107.048 34.1708 107.321 34.222C107.594 34.2732 107.875 34.2664 108.145 34.2021C108.415 34.1377 108.669 34.0173 108.891 33.8483C109.112 33.6794 109.296 33.4656 109.432 33.2208C109.567 32.9759 109.65 32.7052 109.677 32.426C109.703 32.1468 109.671 31.8651 109.583 31.599C109.496 31.3328 109.354 31.088 109.168 30.8801C102.803 22.3331 94.3692 15.5828 84.6776 11.2775C74.9859 6.9722 64.3615 5.25637 53.8244 6.29479C43.2873 7.33321 33.1913 11.091 24.5058 17.2073C15.8204 23.3237 8.83709 31.5932 4.22644 41.222C3.99844 41.7019 3.96715 42.2533 4.13936 42.7563C4.31157 43.2594 4.67337 43.6734 5.1461 43.9084Z" fill="#6D94C4"/>
</g>
<defs>
<filter id="filter0_d" x="0" y="3.05176e-05" width="118" height="118" filterUnits="userSpaceOnUse" color-interpolation-filters="sRGB">
<feFlood flood-opacity="0" result="BackgroundImageFix"/>
<feColorMatrix in="SourceAlpha" type="matrix" values="0 0 0 0 0 0 0 0 0 0 0 0 0 0 0 0 0 0 127 0"/>
<feOffset dy="4"/>
<feGaussianBlur stdDeviation="2"/>
<feColorMatrix type="matrix" values="0 0 0 0 0 0 0 0 0 0 0 0 0 0 0 0 0 0 0.25 0"/>
<feBlend mode="normal" in2="BackgroundImageFix" result="effect1_dropShadow"/>
<feBlend mode="normal" in="SourceGraphic" in2="effect1_dropShadow" result="shape"/>
</filter>
<clipPath id="clip0">
<rect width="110" height="110" fill="white" transform="translate(4)"/>
</clipPath>
</defs>
</svg>
