<svg width="533" height="110" viewBox="0 0 533 110" fill="none" xmlns="http://www.w3.org/2000/svg">
<path d="M111.926 110H92.9056L74.7634 44.6594C73.9831 41.812 73.0077 37.7157 71.8372 32.3706C70.6668 26.9755 69.9596 23.2289 69.7158 21.1308C69.2281 24.3279 68.4234 28.4741 67.3017 33.5695C66.2288 38.6649 65.3265 42.4614 64.595 44.9591L46.8917 110H27.8717L14.0456 55.1499L0 0.449591H17.8496L33.1388 64.2916C35.5285 74.5322 37.2354 83.574 38.2595 91.4169C38.796 87.1708 39.6007 82.4251 40.6736 77.1798C41.7465 71.9346 42.7219 67.6885 43.5998 64.4414L61.0104 0.449591H78.3479L96.1975 64.7411C97.9044 70.6857 99.7089 79.5777 101.611 91.4169C102.342 84.2734 104.098 75.1817 106.878 64.1417L122.094 0.449591H139.797L111.926 110Z" fill="#161828"/>
<path d="M215.512 110H155.013V0.449591H215.512V15.5858H172.497V45.4087H212.805V60.3951H172.497V94.7888H215.512V110Z" fill="#161828"/>
<path d="M343.97 110L333.29 79.5777H292.397L281.935 110H263.501L303.516 0H322.536L362.551 110H343.97ZM328.681 64.1417L318.659 34.3188C317.927 32.3206 316.903 29.1735 315.586 24.8774C314.318 20.5813 313.44 17.4342 312.953 15.436C311.636 21.5804 309.71 28.2993 307.174 35.5926L297.517 64.1417H328.681Z" fill="#161828"/>
<path d="M394.154 51.4033H406.297C414.442 51.4033 420.343 49.8547 424.001 46.7575C427.658 43.6603 429.487 39.0645 429.487 32.97C429.487 26.7757 427.512 22.3297 423.562 19.6322C419.611 16.9346 413.661 15.5858 405.712 15.5858H394.154V51.4033ZM394.154 66.2398V110H376.67V0.449591H406.883C420.684 0.449591 430.901 3.09718 437.534 8.39237C444.167 13.6876 447.483 21.6803 447.483 32.3706C447.483 46.0082 440.558 55.7243 426.707 61.5191L456.92 110H437.022L411.418 66.2398H394.154Z" fill="#161828"/>
<path d="M533 110H472.502V0.449591H533V15.5858H489.985V45.4087H530.293V60.3951H489.985V94.7888H533V110Z" fill="#161828"/>
</svg>
